<svg id="Group_11" data-name="Group 11" xmlns="http://www.w3.org/2000/svg" xmlns:xlink="http://www.w3.org/1999/xlink" width="34.499" height="33.737" viewBox="0 0 34.499 33.737">
  <defs>
    <linearGradient id="linear-gradient" x1="1.067" y1="0.251" x2="-0.075" y2="0.234" gradientUnits="objectBoundingBox">
      <stop offset="0" stop-color="#fff"/>
      <stop offset="1" stop-color="#d5d3d3"/>
    </linearGradient>
    <linearGradient id="linear-gradient-2" x1="1.176" y1="0.418" x2="0.469" y2="0.425" gradientUnits="objectBoundingBox">
      <stop offset="0" stop-color="#0a0a0a"/>
      <stop offset="1" stop-color="#0a0a0a"/>
    </linearGradient>
  </defs>
  <path id="ic_notifications_active_24px" d="M11.632,5.234,9.158,2.76A18.037,18.037,0,0,0,2.03,16.341H5.49A14.612,14.612,0,0,1,11.632,5.234ZM33.068,16.341h3.46A18.147,18.147,0,0,0,29.4,2.76L26.944,5.234A14.7,14.7,0,0,1,33.068,16.341Zm-3.408.865c0-5.311-2.837-9.758-7.786-10.934V5.1a2.6,2.6,0,0,0-5.19,0V6.272C11.719,7.448,8.9,11.877,8.9,17.206v8.651l-3.46,3.46v1.73H33.12v-1.73l-3.46-3.46ZM19.279,36.237a3.031,3.031,0,0,0,.692-.069,3.51,3.51,0,0,0,2.491-2.042,3.473,3.473,0,0,0,.26-1.349H15.8a3.485,3.485,0,0,0,3.478,3.46Z" transform="translate(-2.03 -2.5)" fill="#2edf9e"/>
  <g id="Group_10" data-name="Group 10" transform="translate(17.906 8.231) rotate(30)">
    <g id="Group_2" data-name="Group 2" transform="translate(0 0)">
      <g id="Group_1" data-name="Group 1" transform="translate(0 0)">
        <g id="Path_1" data-name="Path 1" transform="translate(0 0)" fill="url(#linear-gradient)">
          <path d="M 3.657325029373169 15.95736217498779 C 2.19207501411438 15.95736217498779 1.000005006790161 14.76529216766357 1.000005006790161 13.30004215240479 L 1.000005006790161 3.657322406768799 C 1.000005006790161 2.192072629928589 2.19207501411438 1.000002503395081 3.657325029373169 1.000002503395081 C 5.122584819793701 1.000002503395081 6.31465482711792 2.192072629928589 6.31465482711792 3.657322406768799 L 6.31465482711792 13.30004215240479 C 6.31465482711792 14.76529216766357 5.122584819793701 15.95736217498779 3.657325029373169 15.95736217498779 Z" stroke="none"/>
          <path d="M 3.657325029373169 2.000002861022949 C 2.743474960327148 2.000002861022949 1.999995231628418 2.743472099304199 1.999995231628418 3.657322883605957 L 1.999995231628418 13.3000431060791 C 1.999995231628418 14.21389198303223 2.743474960327148 14.95736217498779 3.657325029373169 14.95736217498779 C 4.571175098419189 14.95736217498779 5.314644813537598 14.21389198303223 5.314644813537598 13.3000431060791 L 5.314644813537598 3.657322883605957 C 5.314644813537598 2.743472099304199 4.571175098419189 2.000002861022949 3.657325029373169 2.000002861022949 M 3.657325029373169 1.9073486328125e-06 C 5.677215099334717 1.9073486328125e-06 7.314644813537598 1.637442588806152 7.314644813537598 3.657322883605957 L 7.314644813537598 13.3000431060791 C 7.314644813537598 15.31992244720459 5.677215099334717 16.95736312866211 3.657325029373169 16.95736312866211 C 1.637444972991943 16.95736312866211 -4.76837158203125e-06 15.31992244720459 -4.76837158203125e-06 13.3000431060791 L -4.76837158203125e-06 3.657322883605957 C -4.76837158203125e-06 1.637442588806152 1.637444972991943 1.9073486328125e-06 3.657325029373169 1.9073486328125e-06 Z" stroke="none" fill="#fff"/>
        </g>
        <g id="Rectangle_2" data-name="Rectangle 2" transform="translate(0 7.069)" stroke="#fff" stroke-width="2" fill="url(#linear-gradient-2)">
          <path d="M1.463,0H5.852A1.463,1.463,0,0,1,7.315,1.463V6.231A3.657,3.657,0,0,1,3.657,9.888h0A3.657,3.657,0,0,1,0,6.231V1.463A1.463,1.463,0,0,1,1.463,0Z" stroke="none"/>
          <path d="M2.06,1h3.2a1.06,1.06,0,0,1,1.06,1.06V6.231A2.657,2.657,0,0,1,3.657,8.888h0A2.657,2.657,0,0,1,1,6.231V2.06A1.06,1.06,0,0,1,2.06,1Z" fill="none"/>
        </g>
      </g>
    </g>
  </g>
</svg>
